<svg xmlns="http://www.w3.org/2000/svg" viewBox="0 0 198.59 67.27"><defs><style>.cls-1{fill:#5ac2ec;}.cls-2{fill:#41b8ac;}.cls-3{fill:#88888b;}.cls-4{fill:#89898c;}.cls-5{fill:#88898c;}.cls-6{fill:#89888c;}.cls-7{fill:#89898d;}.cls-8{fill:#88898d;}.cls-9{fill:#8a8a8e;}.cls-10{fill:#8a898d;}.cls-11{fill:#8b8b8f;}.cls-12{fill:#8e8e92;}</style></defs><g id="Calque_2" data-name="Calque 2"><g id="Calque_1-2" data-name="Calque 1"><path class="cls-1" d="M58,23.64a14,14,0,0,1-1.07,5.15,23.16,23.16,0,0,1-1.25,2.55,23.31,23.31,0,0,1-1.54,2.32c-.73.94-1.42,1.91-2.19,2.82a28.54,28.54,0,0,1-4.74,4.71c-1.69,1.22-3.23,2.61-4.93,3.8-1,.71-2,1.49-3,2.17-1.34.87-2.74,1.64-4.08,2.5-1,.64-2.1,1.15-3.13,1.74S30,52.47,29,53a2.74,2.74,0,0,1-2.05.13c-1.09-.28-1.59-1.8-1.31-2.86a3,3,0,0,1,2-2.13,26.46,26.46,0,0,0,2.43-1.24c1.24-.64,2.49-1.27,3.72-1.94.87-.47,1.71-1,2.57-1.5a30.88,30.88,0,0,1,3.18-1.92,14.56,14.56,0,0,0,3.29-2.14,37.54,37.54,0,0,0,5.21-4.8c.86-1,1.73-2,2.58-3a10.67,10.67,0,0,0,1-1.48,20.31,20.31,0,0,0,1.9-3.48,8.73,8.73,0,0,0,.46-4.68A6.55,6.55,0,0,0,52.82,19a7.83,7.83,0,0,0-2.42-2c-.24-.13-.52-.2-.76-.34a5.32,5.32,0,0,0-2.58-.5c-1.21-.08-2.4-.36-3.63-.33a22.6,22.6,0,0,0-3,.26,5.29,5.29,0,0,1-1.37.08,10.79,10.79,0,0,0-3.38.61A23.44,23.44,0,0,0,32.23,18,2.66,2.66,0,0,0,30.68,20c-.24,1.62-.56,3.22-.75,4.84-.21,1.79-.34,3.6-.58,5.39A5.29,5.29,0,0,1,29,31.56a1.16,1.16,0,0,1-2.27-.44c0-.9.08-1.79.17-2.68.17-1.91.25-3.81.54-5.71A27.86,27.86,0,0,1,28,18.55a3.74,3.74,0,0,1,1.91-2.39,29.69,29.69,0,0,1,5.69-2.22,29.86,29.86,0,0,1,6-1.18c1.63-.1,3.27-.15,4.91-.09a11.93,11.93,0,0,1,3.75.8,16.42,16.42,0,0,1,3.32,1.68c.58.38,1.15.8,1.69,1.22a5.7,5.7,0,0,1,1.47,1.94,9.55,9.55,0,0,1,1.14,3.84C57.88,22.64,57.92,23.14,58,23.64Z"/><path class="cls-2" d="M10.58,18.14a17.59,17.59,0,0,1,5,.91,13.5,13.5,0,0,1,2,.49c1.13.53,2.33.87,3.47,1.4,1.34.64,2.6,1.4,3.88,2.15a3.78,3.78,0,0,0,.51.3,1.07,1.07,0,0,1,.72,1.17,1.12,1.12,0,0,1-.68,1.16A1.37,1.37,0,0,1,24,25.59a9,9,0,0,0-2.41-1.22,6.17,6.17,0,0,1-.93-.53,25.49,25.49,0,0,0-7.24-2.45,9.34,9.34,0,0,0-5.95.68,6.84,6.84,0,0,0-1.92,1,6.74,6.74,0,0,0-1.82,2.53A8.51,8.51,0,0,0,3.35,29a12.38,12.38,0,0,0,.57,2.55,20.56,20.56,0,0,0,2.13,4.76,23.12,23.12,0,0,0,2,3,10.61,10.61,0,0,0,1.71,1.94c1.06.82,1.83,1.92,2.86,2.74,1.41,1.12,2.67,2.4,4.11,3.48,1.17.88,2.33,1.77,3.52,2.6s2.18,1.49,3.32,2.17c.79.47,1.56,1,2.36,1.49s1.7,1,2.6,1.48a2.79,2.79,0,0,1,1.66,2.43c-.05,1.76-1,2.56-2.72,2.42A3.19,3.19,0,0,1,26,59.44c-.66-.43-1.33-.85-2-1.29a39.63,39.63,0,0,1-3.9-2.68,20.15,20.15,0,0,0-1.75-1.22c-.94-.63-1.82-1.35-2.7-2.06s-1.5-1.22-2.26-1.8a38.39,38.39,0,0,1-3.52-3.22c-.84-.82-1.56-1.78-2.35-2.66a15.62,15.62,0,0,1-1.27-1.6c-.74-1.09-1.71-2-2.37-3.16s-1.2-2.13-1.76-3.21A19.85,19.85,0,0,1,.33,31.37a13.7,13.7,0,0,1-.19-4.91,11.36,11.36,0,0,1,2.12-4.7A6.43,6.43,0,0,1,4,20.16a13,13,0,0,1,5-1.93A11.89,11.89,0,0,1,10.58,18.14Z"/><path class="cls-3" d="M81.76,21a7.69,7.69,0,0,1,1-4.43A7.5,7.5,0,0,1,84,14.85a7.77,7.77,0,0,1,2.56-1.8,13.09,13.09,0,0,1,3.08-.88,10.65,10.65,0,0,1,3.86,0,12.41,12.41,0,0,1,1.82.57c.24.08.28.26.2.48A11.47,11.47,0,0,0,95,15.51c0,.3-.21.38-.52.29A8.83,8.83,0,0,0,89,15.75a4,4,0,0,0-2.72,2.67A7.42,7.42,0,0,0,86.63,24a4,4,0,0,0,2.12,1.92,7.3,7.3,0,0,0,5.53.14c.41-.15.65-.11.74.42a8.15,8.15,0,0,0,.73,2c.18.39.17.56-.3.73a14.33,14.33,0,0,1-5.82.54,10.21,10.21,0,0,1-3.82-1.1,5.89,5.89,0,0,1-2.24-1.83A8.29,8.29,0,0,1,81.76,21Z"/><path class="cls-4" d="M123,25.22c0,1.28,0,2.56,0,3.84,0,.43-.11.6-.57.59q-1.38,0-2.76,0c-.44,0-.53-.16-.53-.56,0-2.11,0-4.23,0-6.34a6.12,6.12,0,0,0-.18-1.54,2,2,0,0,0-3.89.69c0,2.38,0,4.75,0,7.13,0,.51-.16.64-.65.62-.92,0-1.84,0-2.76,0-.48,0-.66-.17-.65-.68q.15-4.75,0-9.51c0-.69,0-1.39,0-2.09,0-.32.12-.42.42-.42.8,0,1.6,0,2.39-.09.52,0,.72.16.72.67,0,.28-.19.71.12.8s.47-.32.64-.55c.74-1,3.61-1.53,4.91-1a4.64,4.64,0,0,1,2.48,2.56,5.67,5.67,0,0,1,.32,2.17c0,1.24,0,2.48,0,3.71Z"/><path class="cls-5" d="M155.57,18.81A4.42,4.42,0,0,0,154,17.25a6.6,6.6,0,0,0-5.2-.36,5.84,5.84,0,0,0-3.66,3.58,7.87,7.87,0,0,0-.21,5.27,2.57,2.57,0,0,0,.33,1,7.49,7.49,0,0,0,1.6,1.81,6.53,6.53,0,0,0,2.56,1.18,17.16,17.16,0,0,0,4.64,0,4.14,4.14,0,0,0,1.52-.51.42.42,0,0,0,.26-.54,11.67,11.67,0,0,1-.31-1.75c-.07-.35-.18-.5-.56-.35a8.27,8.27,0,0,1-3.42.38,3.11,3.11,0,0,1-3-1.81c-.26-.59-.24-.65.39-.66h6.71c.92,0,1,0,1-1A7.55,7.55,0,0,0,155.57,18.81Zm-3,3h-3.77c-.4,0-.51-.16-.35-.52a3.53,3.53,0,0,1,1-1.58,2.13,2.13,0,0,1,3.14.47,4.43,4.43,0,0,1,.4,1.23C153.08,21.69,152.84,21.77,152.56,21.77Z"/><path class="cls-6" d="M107.63,18.84a4.27,4.27,0,0,0-1.45-1.5,6.29,6.29,0,0,0-7,.4,5.51,5.51,0,0,0-2,2.79,9.13,9.13,0,0,0-.26,5,5.25,5.25,0,0,0,1.31,2.35,7,7,0,0,0,2.64,1.66,1.34,1.34,0,0,0,.39.11,13.75,13.75,0,0,0,3.39.14,8.47,8.47,0,0,0,2.85-.58c.27-.14.51-.29.4-.63a15.45,15.45,0,0,1-.31-1.76c-.06-.32-.18-.48-.52-.34a8.46,8.46,0,0,1-3.42.39A3.09,3.09,0,0,1,100.56,25c-.24-.53-.22-.62.36-.63h3.54c1.16,0,2.32,0,3.48,0,.53,0,.68-.18.68-.69C108.62,22,108.66,20.36,107.63,18.84Zm-3,2.93h-3.78c-.32,0-.53-.1-.36-.47a3.4,3.4,0,0,1,1-1.63,2.28,2.28,0,0,1,2.83.1,3.06,3.06,0,0,1,.71,1.66C105.1,21.74,104.84,21.77,104.6,21.77Z"/><path class="cls-4" d="M126.63,22.85c0-.82,0-1.64,0-2.45,0-.53-.15-.71-.68-.68-1,0-1,0-1-1.06,0-.42,0-.84,0-1.25s.12-.57.55-.57c1.16,0,1.16,0,1.16-1.16,0-.91,0-.88.9-1.15a21.19,21.19,0,0,1,2.5-.75c.4-.07.48,0,.47.4a18.11,18.11,0,0,0,0,2.21c0,.46.24.56.65.55.56,0,1.12,0,1.67,0,.4,0,.53.15.51.53,0,.6,0,1.19,0,1.79,0,.41-.12.58-.55.56-.6,0-1.2,0-1.79,0-.38,0-.55.15-.54.53,0,1.59,0,3.19.11,4.78a1.53,1.53,0,0,0,1.94,1.47c.81-.13.81-.13.81.67s0,1.31,0,2c0,.29-.07.4-.37.47a7.82,7.82,0,0,1-4-.06,3,3,0,0,1-1.24-1,5.16,5.16,0,0,1-1.06-3.51c0-.76,0-1.52,0-2.27Z"/><path class="cls-1" d="M30.39,6.31c0,.35-.34.35-.63.4-1.22.19-1.94.67-2,1.76a2.25,2.25,0,0,0,.06.64c.06.29.07.59-.31.66s-.54-.17-.6-.5a4.89,4.89,0,0,1,0-.54,2.68,2.68,0,0,1,2.84-2.8C30,5.93,30.37,5.93,30.39,6.31Z"/><path class="cls-1" d="M34.49,4.9a5.89,5.89,0,0,0-5.33-2.31A5.75,5.75,0,0,0,24.32,5.7a5.86,5.86,0,0,0,.4,6.52,5.52,5.52,0,0,0,5.06,2.48,4.66,4.66,0,0,0,3.71-1.23A5.53,5.53,0,0,0,35.62,10,6.23,6.23,0,0,0,34.49,4.9Zm-4.84,7.46A3.62,3.62,0,0,1,26,8.75,3.83,3.83,0,0,1,29.6,5a3.73,3.73,0,0,1,3.77,3.66A3.61,3.61,0,0,1,29.65,12.36Z"/><path class="cls-4" d="M98.11,38.89a6.31,6.31,0,0,0-1.58-2.64,7.56,7.56,0,0,0-1.78-1.16,4.56,4.56,0,0,0-1.6-.64,15.47,15.47,0,0,0-3.34-.24,26.17,26.17,0,0,0-3.82.2c-.29,0-.5.09-.53.43-.1,1.16-.51,2.26-.72,3.39a25.1,25.1,0,0,1-.69,3.43,5.64,5.64,0,0,0-.39,1.68,11.94,11.94,0,0,1-.34,2c-.17.94-.49,1.84-.62,2.79a18.19,18.19,0,0,1-.62,3.09c-.22.69-.09.84.67.85,1.71,0,3.42.15,5.14,0a12.11,12.11,0,0,0,6.71-2.43,9.4,9.4,0,0,0,3.22-4.7A10.06,10.06,0,0,0,98.11,38.89Zm-1.3,4.83a8.9,8.9,0,0,1-2.5,4.57A22.85,22.85,0,0,1,92,50a7.21,7.21,0,0,1-2.13.7,12.07,12.07,0,0,1-3.85.37c-.63.06-1.38-.07-2.14-.08-.33,0-.45-.12-.39-.48a27.92,27.92,0,0,1,.7-3.14,12.08,12.08,0,0,0,.31-1.88c.14-1,.47-1.93.64-2.91.39-2.2,1.06-4.36,1.33-6.59,0-.44.22-.56.64-.58a22.32,22.32,0,0,1,5.54.15A5.26,5.26,0,0,1,96.23,38,7.21,7.21,0,0,1,96.81,43.72Z"/><path class="cls-4" d="M139.22,18.92a3.78,3.78,0,0,1,3.64-2.43c.41,0,.61.14.61.54,0,1,0,2-.06,3,0,.33-.22.27-.46.27a3.79,3.79,0,0,0-2,.36c-1.18.64-1.32,1.71-1.34,2.84,0,1.86,0,3.71,0,5.57,0,.47-.13.62-.61.6-.9,0-1.8,0-2.7,0-.52,0-.69-.14-.68-.67,0-3.39,0-6.78,0-10.17,0-.48,0-.95-.08-1.43s.09-.55.5-.54c.83,0,1.67,0,2.51,0,.38,0,.55.16.55.54v1.52Z"/><path class="cls-7" d="M132,39.82a13.81,13.81,0,0,0-3-.56,7.57,7.57,0,0,0-4.5,1.08,21.69,21.69,0,0,0-2,1.39A5.28,5.28,0,0,0,121,44a10.68,10.68,0,0,0-.83,2.66,5.27,5.27,0,0,0,.8,3.75,3.33,3.33,0,0,0,1.92,1.47A5.66,5.66,0,0,0,129,49.58c.11-.15.18-.36.45-.36,0,.08.06.16,0,.22-.58,1.47-.67,3.1-1.49,4.5a4.55,4.55,0,0,1-2.35,2.25,7.34,7.34,0,0,1-5.37-.3c-.26-.12-.37-.11-.53.1-.42.56-.24,1,.5,1.2a12.85,12.85,0,0,0,3.38.38A6.16,6.16,0,0,0,128,56a9.48,9.48,0,0,0,2.34-5.2c.35-1.88.93-3.73,1.12-5.64.16-1.55.73-3,1-4.55C132.51,40.16,132.44,39.92,132,39.82ZM131,41.17a7,7,0,0,0-.47,2.21,11.32,11.32,0,0,1-2,5.38c-.81,1-2.34,2.38-4,2.22-.89.28-1.59-.38-2.21-.93a3,3,0,0,1-.64-1.82,7.54,7.54,0,0,1,.54-3.8,5.6,5.6,0,0,1,2.14-2.87,6.82,6.82,0,0,1,4.6-1.18,10.61,10.61,0,0,1,1.77.24C130.91,40.71,131.14,40.85,131,41.17Z"/><path class="cls-2" d="M30,38.19a2.93,2.93,0,0,1,2.06.34,1.82,1.82,0,0,1,.61,1.77,1.64,1.64,0,0,1-1.3,1.08,18.35,18.35,0,0,1-2.57-.08c-.71-.1-.83,0-.87.76,0,.44,0,.88-.06,1.32a1.48,1.48,0,0,1-.23.84c-1,1.18-1.47.88-2.42-.08a.49.49,0,0,1-.11-.39,8.46,8.46,0,0,1,.18-2.19c.1-.32,0-.41-.3-.46-.74-.1-1.48,0-2.21-.11a1.36,1.36,0,0,1-1.18-1,1.24,1.24,0,0,1,.44-1.29.76.76,0,0,1,.53-.23c.82,0,1.63-.13,2.45-.14.56,0,.83-.16.84-.78a16.4,16.4,0,0,1,.21-2.32,1.22,1.22,0,0,1,1.47-1.05,1.32,1.32,0,0,1,1.21,1.31,9.58,9.58,0,0,1-.23,2.13c-.08.37-.05.63.46.54A5.78,5.78,0,0,1,30,38.19Z"/><path class="cls-8" d="M70.7,33.64V.72c0-.29-.12-.73.38-.72s.38.43.38.73v65.8a2.37,2.37,0,0,1,0,.53c0,.18-.22.21-.39.21a.29.29,0,0,1-.32-.28c0-.16,0-.32,0-.48Z"/><path class="cls-7" d="M117.8,39.49a11.87,11.87,0,0,0-3.51-.22,7.15,7.15,0,0,0-3.24.88,11,11,0,0,1-1.79,1.11,4.16,4.16,0,0,0-1.5,1.33,10.3,10.3,0,0,0-2,4.55,4.73,4.73,0,0,0,.86,3.83A3.15,3.15,0,0,0,109,52.21a5,5,0,0,0,3.12-.46,6.1,6.1,0,0,0,2.49-2.32,1.7,1.7,0,0,1,.7-.64,20.81,20.81,0,0,0-.23,2.76c0,.36.14.5.5.49s.66.05.63-.46a8.51,8.51,0,0,1,0-1.13c.18-2.44.79-4.82,1.21-7.22.19-1,.55-2.07.72-3.13C118.22,39.76,118.16,39.54,117.8,39.49ZM116.66,41c-.57,2-.67,4.12-1.55,6a8.43,8.43,0,0,1-1.14,1.8,8.19,8.19,0,0,1-2.41,2.08,3.29,3.29,0,0,1-3.78-.57,3.69,3.69,0,0,1-.6-2.21,8,8,0,0,1,2-5.27,5,5,0,0,1,.9-.94,8.84,8.84,0,0,1,3.44-1.43,10.47,10.47,0,0,1,2.74,0C116.6,40.46,116.78,40.54,116.66,41Z"/><path class="cls-7" d="M160.58,41.05a5.33,5.33,0,0,0-4.22-1.85,7.07,7.07,0,0,0-1.38.26,6.29,6.29,0,0,0-3.84,2.29,7.88,7.88,0,0,0-1.83,5.87,4.64,4.64,0,0,0,4.28,4.6A7,7,0,0,0,158.35,51a9.22,9.22,0,0,0,2.54-3.27,6.83,6.83,0,0,0,.68-3.06A5,5,0,0,0,160.58,41.05Zm-1.05,6.35a8.18,8.18,0,0,1-1.68,2.43,4.24,4.24,0,0,1-3.26,1.36c-2,.24-3.74-1.64-3.91-3.53a7.76,7.76,0,0,1,1.22-4.93c.34-.54.65-1.33,1.54-1.41.29,0,.44-.43.76-.56a5.49,5.49,0,0,1,3.68-.23,3.53,3.53,0,0,1,2.33,2.83A7.57,7.57,0,0,1,159.53,47.4Z"/><path class="cls-7" d="M138,41.7a12.75,12.75,0,0,1,2.37-1.83,5.94,5.94,0,0,1,3.69-.53,3.3,3.3,0,0,1,2.42,2.14,3.21,3.21,0,0,1,.1,1.77c-.1,1-.53,2-.63,3.09-.16,1.76-.81,3.43-1,5.19,0,.24-.09.47-.35.49a1.48,1.48,0,0,1-.93-.08c-.15-.08-.11-.24-.06-.38.44-1.26.37-2.63.77-3.91a21,21,0,0,0,.8-4.51c.14-1.54-.12-2.23-1.29-2.61a4.2,4.2,0,0,0-2.53,0,4.72,4.72,0,0,0-1.25.67A5.17,5.17,0,0,0,139,42a6.73,6.73,0,0,0-1.87,4,24.8,24.8,0,0,1-.67,2.9c-.2.89-.19,1.82-.47,2.7a.88.88,0,0,1-1.17.42c-.45-.14-.25-.48-.16-.74.61-1.82.73-3.74,1.17-5.6s.79-3.81,1.16-5.72c.09-.51.43-.47.8-.48s.35.34.36.59A5.67,5.67,0,0,1,138,41.7Z"/><path class="cls-7" d="M195.65,39.22a9.8,9.8,0,0,1,2.52.44c.32.07.52.21.36.5s-.22.76-.74.59a7.55,7.55,0,0,0-4.24-.11c-.07,0-.17,0-.23,0a7.1,7.1,0,0,0-3.47,3.12,8.11,8.11,0,0,0-.76,4.78A3.13,3.13,0,0,0,191.2,51a6.4,6.4,0,0,0,4.7-.49c.2-.11.45-.14.46.13s.63.64,0,1A4.65,4.65,0,0,1,195,52a10.2,10.2,0,0,1-4.33,0A3.88,3.88,0,0,1,188,49.49a7.41,7.41,0,0,1,.51-5.77,5.48,5.48,0,0,1,2-2.49c.63-.43,1.26-.91,1.91-1.28A7.71,7.71,0,0,1,195.65,39.22Z"/><path class="cls-7" d="M179.62,39.49c.4,0,.8,0,1.2,0s.5.14.48.5-.16.54-.56.52c-.76,0-1.52-.06-2.28,0s-.87.12-1,1-.5,1.88-.65,2.84c-.26,1.73-.72,3.42-1,5.15-.22,1.37.41,1.91,2,1.76.44,0,.64,0,.63.49s-.15.47-.5.51a6.31,6.31,0,0,1-1.84,0,1.73,1.73,0,0,1-1.51-1.65,15.12,15.12,0,0,1,.69-5.18c.33-1.18.33-2.41.7-3.57a.5.5,0,0,0,0-.12c.32-1.17.31-1.15-.93-1.18-.26,0-.71.26-.73-.31s.28-.65.77-.65c1.46,0,1.46,0,1.64-1.5,0-.4.24-.75.28-1.16s1.14-.71,1.39-.54c.1.06.09.16.07.26a10.45,10.45,0,0,1-.47,2.08c-.26.75-.2.87.59.87Z"/><path class="cls-7" d="M166.15,42.48a1.72,1.72,0,0,0,.57,1.39A6.3,6.3,0,0,0,168.24,45a3.74,3.74,0,0,1,2.17,3.36,3.46,3.46,0,0,1-1.22,2.72,5.15,5.15,0,0,1-4.11,1.08,10.12,10.12,0,0,1-1.46-.25.65.65,0,0,1-.56-.55,1.59,1.59,0,0,1,.31-.82c0-.1.17,0,.26.05a4.35,4.35,0,0,0,3.73.36,2.59,2.59,0,0,0,1.15-4.08,6.1,6.1,0,0,0-1.76-1.29A3.46,3.46,0,0,1,165,41.92a1.8,1.8,0,0,1,.39-.85,4.62,4.62,0,0,1,4.8-1.73c.35.08.7.16,1.05.26.2.06.59,0,.4.4s-.19.85-.8.65a5.28,5.28,0,0,0-3.17-.1,1.09,1.09,0,0,0-.59.36,1.56,1.56,0,0,1-.6.54C166,41.66,166.23,42.13,166.15,42.48Z"/><path class="cls-7" d="M100.61,52c-.6,0-.73-.15-.56-.7a24.23,24.23,0,0,0,.9-4.12,14,14,0,0,1,.44-1.92c.25-.94.35-1.91.53-2.87a21,21,0,0,1,.73-2.69c.16-.45.64-.24,1-.22s.22.38.19.58c-.16,1.28-.66,2.51-.83,3.78-.31,2.31-1.11,4.51-1.31,6.84a5,5,0,0,1-.25,1C101.28,52.1,100.93,52,100.61,52Z"/><path class="cls-9" d="M182.39,52c-.47.08-.79-.05-.58-.6.55-1.47.48-3.06.94-4.55s.54-3.37,1.06-5a11.76,11.76,0,0,0,.46-2c0-.37.56-.54,1.07-.4s.19.41.16.64c-.33,2.32-1.11,4.55-1.37,6.89-.11,1-.54,1.95-.72,2.95a8.89,8.89,0,0,0-.18,1.36C183.23,51.93,182.93,52.1,182.39,52Z"/><path class="cls-10" d="M185.69,36.85a1,1,0,0,1-1-1,1.44,1.44,0,0,1,1.13-1.19,1.21,1.21,0,0,1,1,1.18A1.14,1.14,0,0,1,185.69,36.85Z"/><path class="cls-11" d="M104,36.85a1.07,1.07,0,0,1-1.09-1,1.42,1.42,0,0,1,1.18-1.23,1.13,1.13,0,0,1,1,1.16A1,1,0,0,1,104,36.85Z"/><path class="cls-12" d="M30.39,6.31c0,.35-.34.35-.63.4-1.22.19-1.94.67-2,1.76a2.25,2.25,0,0,0,.06.64c.06.29.07.59-.31.66s-.54-.17-.6-.5a4.89,4.89,0,0,1,0-.54,2.68,2.68,0,0,1,2.84-2.8C30,5.93,30.37,5.93,30.39,6.31Z"/></g></g></svg>